<svg version="1.0" xmlns="http://www.w3.org/2000/svg" width="933.333" height="933.333" viewBox="0 0 700 700"><path d="M332.5 43.8c-.2.2-2.7.6-5.6.8-5 .5-26.7 3.8-31.4 4.8-38.4 8.1-80.1 28.2-110.4 53.1-13.8 11.3-29.7 27.7-41.9 43.1-17.5 22-35.2 56-42.7 81.8-1.3 4.8-2.7 9.1-2.9 9.4-.6 1-5.7 26.1-6.2 30.7-.3 2.2-.7 5.1-.9 6.5-1.8 10.2-2.4 37.8-1.2 53 4.4 56.2 24.9 105.9 61.2 149 4.8 5.7 28.6 29.2 34 33.6 19.8 16.1 50.3 34 69.5 40.9 15.2 5.5 19.6 6.9 29.5 9.5 6.1 1.6 12.4 3.2 14 3.5 1.7.2 3.9.7 5 .9 2.7.5 9.3 1.5 13.5 2.1 9.6 1.2 13.3 1.5 22.4 2 5.5.3 10.3.8 10.8 1.1.4.3.8 15.4.8 33.5 0 36.4.2 37.8 6.1 42 5.8 4.1 10.5 3.3 24.8-4.5 18.7-10.2 28.2-16 44.6-26.9 61.4-41 104.7-85.1 139-141.7 11.6-19.1 26.6-52.4 32-71 2.3-7.8 6.5-24.1 6.9-26.5.3-1.7 1.3-6.6 2.1-11 .9-4.4 1.8-9.8 2.1-12 .3-2.2.7-5.4.9-7 1.5-11.8 2-20.6 2-39 0-18.9-.4-26.9-2.1-38.3-.8-6.2-3.5-19.5-4.4-22.7-.5-1.7-1.1-4.1-1.4-5.5-.8-5-8-25.7-12.3-36-21.6-50.8-58.2-93-105.8-122-6.8-4.2-29.7-16-30.9-16-.3 0-2.5-.9-4.9-2-15.3-7.1-50.5-15.9-72.7-18.1-10.5-1-42.7-1.8-43.5-1.1zm-12.8 176c1.3.7 3.1 2.7 4 4.5 1.7 2.9 1.8 8.3 2 68.2.1 37-.3 67.6-.8 71-3.6 22.9-17.3 43.9-37.1 56.9-10 6.6-27.5 12.6-37 12.6-7.5 0-7.8-.9-7.8-24 0-23-.2-22.4 11.2-25.4 11-2.9 20.4-9.9 24.8-18.6 1.9-3.7 5.2-14.1 4.7-14.6-.2-.2-16.3-.4-35.8-.4-39.3-.1-40-.2-44-6.6-2-3.3-2.1-4.4-2.1-58.9-.1-52.3 0-55.8 1.8-59 3.8-7.1 3.1-7.1 61.6-7 39.3.1 52.9.4 54.5 1.3zm168.9-.4c2.9.8 5.8 3.5 7.9 7.6 1.7 3.3 1.9 7.4 1.9 65.4.1 63.7-.3 72.8-4 84.1-7 21.2-22.4 39-42.3 49-6.8 3.4-22.3 7.2-28.8 7.1-7.3-.1-7.8-1.8-7.8-25 .1-18.7.1-18.8 2.6-20.7 1.3-1 4.6-2.3 7.3-2.9 14.8-3.2 27.6-16 30.1-30.3l.7-3.7h-35.7c-34.8 0-35.8-.1-39.6-2.2-6.8-3.8-6.7-2.8-6.8-63.8 0-53.3 0-54.5 2.1-58.1 2.2-4 4.7-5.7 9.7-6.7 3.7-.8 99.6-.5 102.7.2z"/></svg>