<svg viewBox="0 0 64 64" xmlns="http://www.w3.org/2000/svg"><path d="M33.88 59.08a50.45 50.45 0 0010.83-7.46 28.04 28.04 0 002.14-2.13l.88-1c.45-.49.85-1 1.28-1.55.43-.55 1-1.25 1.4-1.9a30.46 30.46 0 002.48-4.26c.39-.81.75-1.64 1.08-2.48a28.87 28.87 0 001.67-6.83c.08-.65.14-1.3.18-1.95a23.38 23.38 0 00-.18-5 23.92 23.92 0 00-6.19-12.94 23.86 23.86 0 00-14.64-7.43A11.5 11.5 0 0133.47 4h-3.16c0 .08-.11.05-.17.06a24.47 24.47 0 00-2.43.32A24 24 0 008.15 26.25a24.4 24.4 0 001.52 10.46 17 17 0 00.73 1.64l.2.41a24.08 24.08 0 005 6.71A23.75 23.75 0 0031.65 52c.28 0 .36.07.35.36V58a1.28 1.28 0 001.88 1.08zm.34-37.55a1.3 1.3 0 01.61-1.35 1.15 1.15 0 01.63-.17h8.87c.79 0 1.24.7 1.24 1.61V32.1a7.64 7.64 0 01-4.63 7l-.2.1h-.17a13.62 13.62 0 01-1.75.39A.64.64 0 0138 39v-3.1c0-.44.17-.63.72-.75a3.91 3.91 0 001.88-.89A3.78 3.78 0 0041.72 32H35.5a1.25 1.25 0 01-1.29-1.31v-9.1s.01-.04.01-.06zm-4.43 10.55a7.49 7.49 0 01-2.5 5.61l-.25.24a8 8 0 01-2.78 1.44c-.438.11-.882.193-1.33.25a.63.63 0 01-.7-.45v-2.89c0-.28-.1-.59.13-.84a.79.79 0 01.41-.25 5.26 5.26 0 001.47-.5 3.38 3.38 0 001.6-2.19L26 32h-6.12a1.92 1.92 0 01-.52-.05 1.23 1.23 0 01-.91-1.15v-9.22a1.4 1.4 0 01.41-1.3 1.15 1.15 0 01.76-.3h8.93c.79 0 1.23.25 1.23 1.61.01.25.03 7.14.01 10.49z"/></svg>