<?xml version="1.0" encoding="UTF-8"?><svg version="1.1" viewBox="0 0 64 64" xmlns="http://www.w3.org/2000/svg" xmlns:xlink="http://www.w3.org/1999/xlink"><!--Generated by IJSVG (https://github.com/iconjar/IJSVG)--><g fill="#000"><path d="M32,60Z"></path><path d="M33.88,59.08l-1.02394e-06,5.23328e-07c3.92002,-2.0035 7.56095,-4.51146 10.83,-7.46c0.746667,-0.666667 1.46,-1.37667 2.14,-2.13l0.88,-1c0.45,-0.49 0.85,-1 1.28,-1.55c0.43,-0.55 1,-1.25 1.4,-1.9l1.1162e-06,-1.60317e-06c0.940396,-1.35067 1.76978,-2.77533 2.48,-4.26c0.39,-0.81 0.75,-1.64 1.08,-2.48v0l-5.22987e-07,1.38155e-06c0.832861,-2.20012 1.39369,-4.4938 1.67,-6.83c0.08,-0.65 0.14,-1.3 0.18,-1.95l4.13276e-07,-5.79309e-06c0.119016,-1.66831 0.0586702,-3.34457 -0.180001,-5l-2.70566e-07,-1.89713e-06c-0.690987,-4.845 -2.85149,-9.36147 -6.19,-12.94l1.49596e-07,1.60599e-07c-3.84747,-4.13045 -9.03474,-6.76307 -14.64,-7.42999l-4.66655e-07,-2.46707e-08c-0.449214,-0.0237486 -0.896648,-0.0738344 -1.33999,-0.149999h-3.16001c0,0.08 -0.11,0.05 -0.17,0.06l1.23067e-07,-9.96942e-09c-0.814837,0.0660084 -1.62585,0.172809 -2.43,0.32l-1.31731e-06,2.44386e-07c-10.7359,1.99171 -18.7741,10.9793 -19.56,21.87l-6.90684e-07,9.31396e-06c-0.263686,3.55585 0.255154,7.12627 1.52,10.46l-1.11947e-06,-2.92113e-06c0.214279,0.559139 0.457951,1.10657 0.729995,1.63999l0.2,0.41l-1.53724e-06,-3.05836e-06c1.26228,2.51134 2.9545,4.78229 5,6.71l2.50881e-06,2.38359e-06c4.33673,4.12027 10.0686,6.45228 16.05,6.53c0.28,0 0.36,0.07 0.35,0.36v5.64l-4.01432e-08,-1.02395e-06c0.0276929,0.706382 0.622778,1.25657 1.32916,1.22888c0.192475,-0.00754575 0.380765,-0.0584346 0.550836,-0.148874Zm0.34,-37.55l-2.95196e-08,-1.60545e-07c-0.0980349,-0.53317 0.145077,-1.0712 0.61,-1.35l-1.03883e-07,6.38667e-08c0.189181,-0.116307 0.407991,-0.175351 0.63,-0.17h8.87c0.79,0 1.24,0.7 1.24,1.61c0,0.42 0,7.13 0,10.48l4.71025e-08,-1.62997e-05c-0.00880485,3.04801 -1.82848,5.79916 -4.62999,7.00001l-0.2,0.1l6.50069e-09,8.25329e-09c0.0409125,0.0519425 0.103899,0.0815832 0.17,0.08l-3.38181e-09,8.10019e-11c-0.066101,0.00158321 -0.129088,-0.0280575 -0.17,-0.08h-0.11h-0.06l1.33726e-07,-3.91989e-08c-0.574132,0.168295 -1.15873,0.298577 -1.74999,0.389999l3.31872e-08,-9.75426e-09c-0.339118,0.0996722 -0.694828,-0.0944369 -0.7945,-0.433555c-0.0149565,-0.0508869 -0.0235293,-0.103436 -0.0255211,-0.156438c0,-0.32 0,-0.64 0,-1v-1.72c0,-0.13 0,-0.25 0,-0.38c0,-0.44 0.17,-0.63 0.72,-0.75l2.8377e-07,-4.95637e-08c0.695529,-0.121482 1.34518,-0.429032 1.88,-0.89l1.15592e-07,-1.12206e-07c0.621076,-0.602882 1.01643,-1.40065 1.12,-2.26h-6.22l-5.80854e-08,1.92829e-09c-0.689976,0.0229055 -1.26788,-0.517862 -1.29079,-1.20784c-0.00113039,-0.0340506 -0.000868219,-0.0681332 0.000785869,-0.102162c0,-3.03333 0,-6.06667 0,-9.1c0,0 0.01,-0.0400001 0.01,-0.0600001Zm-4.43,10.55l3.10766e-08,9.59289e-06c0.00693578,2.1414 -0.903031,4.18336 -2.50001,5.61l-0.25,0.24l-1.2133e-07,9.70919e-08c-0.822781,0.658411 -1.76754,1.14778 -2.78,1.44l-1.38273e-07,3.4716e-08c-0.437915,0.109947 -0.882052,0.193431 -1.33,0.25l-2.88242e-09,4.35868e-10c-0.313296,0.0473755 -0.613031,-0.145311 -0.7,-0.45c0,-0.966667 0,-1.93 0,-2.89c0,-0.28 -0.1,-0.59 0.13,-0.84l1.1492e-08,-1.32511e-08c0.107415,-0.123858 0.250703,-0.211229 0.41,-0.25l3.97187e-07,-7.21625e-08c0.512037,-0.0930289 1.00743,-0.261531 1.47,-0.5l1.69701e-08,-9.87454e-09c0.815677,-0.474625 1.39578,-1.26865 1.6,-2.19l0.160007,-0.500006h-6.12l4.65345e-08,-1.89058e-09c-0.174802,0.00710177 -0.349754,-0.00972053 -0.52,-0.0499999l-9.94955e-09,-2.67559e-09c-0.523672,-0.140824 -0.893334,-0.60798 -0.91,-1.15c0,-3.07333 0,-6.14667 0,-9.22l-2.58987e-08,-1.25857e-07c-0.097765,-0.475099 0.0573578,-0.966952 0.41,-1.3l-6.7458e-08,6.14888e-08c0.20807,-0.189659 0.478485,-0.296401 0.76,-0.3h8.93c0.79,0 1.23,0.25 1.23,1.61c0.00999971,0.25 0.0299997,7.14 0.00999971,10.49Z"></path></g></svg>