<?xml version="1.0" standalone="no"?>
<!DOCTYPE svg PUBLIC "-//W3C//DTD SVG 20010904//EN"
 "http://www.w3.org/TR/2001/REC-SVG-20010904/DTD/svg10.dtd">
<svg version="1.0" xmlns="http://www.w3.org/2000/svg"
 width="700.000000pt" height="700.000000pt" viewBox="0 0 700.000000 700.000000"
 preserveAspectRatio="xMidYMid meet">
<metadata>
Created by potrace 1.11, written by Peter Selinger 2001-2013
</metadata>
<g transform="translate(0.000000,700.000000) scale(0.100000,-0.100000)"
fill="#000000" stroke="none">
<path d="M3325 6562 c-2 -2 -27 -6 -56 -8 -50 -5 -267 -38 -314 -48 -384 -81
-801 -282 -1104 -531 -138 -113 -297 -277 -419 -431 -175 -220 -352 -560 -427
-818 -13 -48 -27 -91 -29 -94 -6 -10 -57 -261 -62 -307 -3 -22 -7 -51 -9 -65
-18 -102 -24 -378 -12 -530 44 -562 249 -1059 612 -1490 48 -57 286 -292 340
-336 198 -161 503 -340 695 -409 152 -55 196 -69 295 -95 61 -16 124 -32 140
-35 17 -2 39 -7 50 -9 27 -5 93 -15 135 -21 96 -12 133 -15 224 -20 55 -3 103
-8 108 -11 4 -3 8 -154 8 -335 0 -364 2 -378 61 -420 58 -41 105 -33 248 45
187 102 282 160 446 269 614 410 1047 851 1390 1417 116 191 266 524 320 710
23 78 65 241 69 265 3 17 13 66 21 110 9 44 18 98 21 120 3 22 7 54 9 70 15
118 20 206 20 390 0 189 -4 269 -21 383 -8 62 -35 195 -44 227 -5 17 -11 41
-14 55 -8 50 -80 257 -123 360 -216 508 -582 930 -1058 1220 -68 42 -297 160
-309 160 -3 0 -25 9 -49 20 -153 71 -505 159 -727 181 -105 10 -427 18 -435
11z m-128 -1760 c13 -7 31 -27 40 -45 17 -29 18 -83 20 -682 1 -370 -3 -676
-8 -710 -36 -229 -173 -439 -371 -569 -100 -66 -275 -126 -370 -126 -75 0 -78
9 -78 240 0 230 -2 224 112 254 110 29 204 99 248 186 19 37 52 141 47 146 -2
2 -163 4 -358 4 -393 1 -400 2 -440 66 -20 33 -21 44 -21 589 -1 523 0 558 18
590 38 71 31 71 616 70 393 -1 529 -4 545 -13z m1689 4 c29 -8 58 -35 79 -76
17 -33 19 -74 19 -654 1 -637 -3 -728 -40 -841 -70 -212 -224 -390 -423 -490
-68 -34 -223 -72 -288 -71 -73 1 -78 18 -78 250 1 187 1 188 26 207 13 10 46
23 73 29 148 32 276 160 301 303 l7 37 -357 0 c-348 0 -358 1 -396 22 -68 38
-67 28 -68 638 0 533 0 545 21 581 22 40 47 57 97 67 37 8 996 5 1027 -2z"/>
</g>
</svg>
